<?xml version="1.0" encoding="UTF-8"?>
<svg width="137px" height="26px" viewBox="0 0 137 26" version="1.1" xmlns="http://www.w3.org/2000/svg" xmlns:xlink="http://www.w3.org/1999/xlink">
    <!-- Generator: Sketch 52.5 (67469) - http://www.bohemiancoding.com/sketch -->
    <title>logo copy</title>
    <desc>Created with Sketch.</desc>
    <defs>
        <linearGradient x1="0%" y1="0%" x2="90.763863%" y2="91.4319272%" id="linearGradient-1">
            <stop stop-color="#423AED" offset="0%"></stop>
            <stop stop-color="#539AF7" offset="100%"></stop>
        </linearGradient>
        <polygon id="path-2" points="13.9421264 0.109528736 8.43924138 12.7299885 8.39366667 12.7299885 2.93605747 0.109528736 0.0936896552 0.109528736 0.0936896552 16.2090575 2.00394253 16.2090575 2.00394253 2.70175862 2.04936782 2.70175862 7.82525287 16.2090575 8.98494253 16.2090575 14.7608276 2.70175862 14.8062529 2.70175862 14.8062529 16.2090575 16.7163563 16.2090575 16.7163563 0.109528736"></polygon>
        <linearGradient x1="75.6323421%" y1="0%" x2="22.2265445%" y2="100%" id="linearGradient-4">
            <stop stop-color="#4137EC" offset="0%"></stop>
            <stop stop-color="#539AF7" offset="100%"></stop>
        </linearGradient>
        <path d="M10.3674253,0.477563218 C8.21734483,1.31285057 6.94214943,3.42781609 7.07498851,5.6136092 L7.07170115,5.61106897 C7.07424138,5.63303448 7.07678161,5.65470115 7.07917241,5.67666667 C7.08709195,5.78470115 7.09844828,5.89288506 7.1133908,6.00121839 C7.92267816,14.294023 3.21398851,15.9397931 2.23525287,16.190977 C1.45585057,16.3380115 0.746229885,16.8205057 0.336057471,17.571069 C-0.389850575,18.9005057 0.0993678161,20.5646552 1.42790805,21.2898161 C2.7565977,22.0158736 4.42089655,21.5274023 5.1468046,20.1987126 C5.38663218,19.7595517 5.49391954,19.2836322 5.48196552,18.8171264 L5.48510345,18.8195172 C5.49601149,12.0735632 12.4832874,10.5255172 12.9998506,10.4201724 C13.3737126,10.3642874 13.7472759,10.2665632 14.1142644,10.1238621 C16.7783678,9.08998851 18.0991379,6.09102299 17.0643678,3.42766667 C16.2686782,1.37904598 14.311954,0.125218391 12.2391264,0.125367816 C11.6163218,0.125517241 10.9826092,0.238632184 10.3674253,0.477563218" id="path-5"></path>
    </defs>
    <g id="TrustOne客户端" stroke="none" stroke-width="1" fill="none" fill-rule="evenodd">
        <g id="logo-copy">
            <g id="分组" transform="translate(13.747126, 6.748195)">
                <path d="M7.49575517,11.2244092 C7.49575517,13.2654092 5.84161724,14.9195471 3.80061724,14.9195471 C1.75961724,14.9195471 0.105329885,13.2654092 0.105329885,11.2244092 C0.105329885,9.1834092 1.75961724,7.52927126 3.80061724,7.52927126 C5.84161724,7.52927126 7.49575517,9.1834092 7.49575517,11.2244092" id="Fill-1" fill="#3955E4"></path>
                <path d="M20.0594483,11.9634368 C20.0594483,13.5962069 18.7361379,14.9196667 17.1032184,14.9196667 C15.4705977,14.9196667 14.1471379,13.5962069 14.1471379,11.9634368 C14.1471379,10.3306667 15.4705977,9.0072069 17.1032184,9.0072069 C18.7361379,9.0072069 20.0594483,10.3306667 20.0594483,11.9634368" id="Fill-3" fill="#68A1FC"></path>
                <path d="M10.7173046,4.52026437 C9.49276437,4.52026437 8.50013218,3.52763218 8.50013218,2.30309195 C8.50013218,1.07855172 9.49276437,0.0860689655 10.7173046,0.0860689655 C11.9418448,0.0860689655 12.9343276,1.07855172 12.9343276,2.30309195 C12.9343276,3.52763218 11.9418448,4.52026437 10.7173046,4.52026437" id="Fill-5" fill="#ABC6FF"></path>
            </g>
            <g id="分组" transform="translate(42.137931, 4.207966)">
                <mask id="mask-3" fill="white">
                    <use xlink:href="#path-2"></use>
                </mask>
                <use id="Clip-8" fill="url(#linearGradient-1)" xlink:href="#path-2"></use>
            </g>
            <g id="分组" transform="translate(61.862069, 4.207966)" fill="#000000">
                <path d="M10.181331,14.2762414 C9.54462989,15.0949425 8.84726207,15.6672414 8.08937701,15.9931379 C7.33134253,16.3190345 6.45197471,16.4820575 5.45142299,16.4820575 C4.61777931,16.4820575 3.86736552,16.3341264 3.20018161,16.0385632 C2.53314713,15.743 1.96846897,15.3450805 1.50614713,14.8448046 C1.04382529,14.3445287 0.687445977,13.7532529 0.437457471,13.0711264 C0.187170115,12.3888506 0.0621011494,11.6612989 0.0621011494,10.888023 C0.0621011494,10.0694713 0.198526437,9.31517241 0.471526437,8.62542529 C0.744377011,7.93567816 1.12331954,7.3444023 1.60850345,6.85174713 C2.09368736,6.35909195 2.66957241,5.97626437 3.3366069,5.70341379 C4.0037908,5.43056322 4.73134253,5.29413793 5.51971034,5.29413793 C6.26250345,5.29413793 6.94477931,5.4192069 7.56623908,5.6691954 C8.18784828,5.91948276 8.7221931,6.28318391 9.16942299,6.76074713 C9.61665287,7.23831034 9.96152644,7.82196552 10.2040437,8.51171264 C10.4465609,9.2016092 10.5678943,9.98609195 10.5678943,10.8653103 L10.5678943,11.4338736 L1.9722046,11.4338736 C2.00268736,11.8885747 2.11251494,12.3244483 2.30213563,12.7413448 C2.4916069,13.1582414 2.73785977,13.522092 3.04104368,13.8328966 C3.34422759,14.1435517 3.70045747,14.389954 4.10988276,14.571954 C4.51915862,14.7538046 4.96638851,14.8448046 5.45142299,14.8448046 C6.22469885,14.8448046 6.87649195,14.7083793 7.40710115,14.4353793 C7.93771034,14.1625287 8.41527356,13.7608736 8.83964138,13.2302644 L10.181331,14.2762414 Z M8.6577908,9.93304598 C8.62745747,9.02334483 8.33189425,8.2957931 7.77095172,7.74994253 C7.2100092,7.20424138 6.43688276,6.9313908 5.45142299,6.9313908 C4.46611264,6.9313908 3.67027356,7.20424138 3.06375632,7.74994253 C2.45738851,8.2957931 2.09368736,9.02334483 1.9722046,9.93304598 L8.6577908,9.93304598 Z" id="Fill-9"></path>
                <path d="M13.3193966,8.09106552 C13.3193966,7.60588161 13.3041552,7.15118046 13.2739713,6.72666322 C13.2436379,6.30214598 13.2283966,5.91558276 13.2283966,5.56697356 L14.9112241,5.56697356 C14.9112241,5.85506552 14.9188448,6.14300805 14.9339368,6.4311 C14.9490287,6.71904253 14.9566494,7.01475517 14.9566494,7.31793908 L15.0020747,7.31793908 C15.123408,7.06018046 15.2940517,6.81004253 15.5138563,6.56752529 C15.7336609,6.32500805 15.9950057,6.10893908 16.2983391,5.91946782 C16.601523,5.72984713 16.9426609,5.57832989 17.3216034,5.46461724 C17.700546,5.3509046 18.1099713,5.29412299 18.5495805,5.29412299 C18.6709138,5.29412299 18.7920977,5.30174368 18.913431,5.31683563 C19.0346149,5.33192759 19.1560977,5.36226092 19.2772816,5.40768621 L19.1634195,7.20422644 C18.8602356,7.11322644 18.5419598,7.06780115 18.2084425,7.06780115 C17.1168908,7.06780115 16.3247874,7.4202954 15.8321322,8.12513448 C15.339477,8.83012299 15.0930747,9.79660575 15.0930747,11.0244333 L15.0930747,16.209192 L13.3193966,16.209192 L13.3193966,8.09106552 Z" id="Fill-11"></path>
                <path d="M27.9751931,8.22750575 C27.5962506,7.77265517 27.1869747,7.44302299 26.7472161,7.23831034 C26.3076069,7.0335977 25.8225724,6.9313908 25.2918138,6.9313908 C24.7006874,6.9313908 24.1776989,7.0335977 23.7228483,7.23831034 C23.2681471,7.44302299 22.8927908,7.72722989 22.5972276,8.09108046 C22.3016644,8.45493103 22.0779747,8.87556322 21.9264575,9.35312644 C21.7747908,9.83068966 21.6990322,10.3423218 21.6990322,10.888023 C21.6990322,11.4338736 21.7861471,11.9453563 21.9605264,12.4229195 C22.1347563,12.9004828 22.377423,13.3211149 22.6880782,13.6849655 C22.9988828,14.0488161 23.3740897,14.333023 23.8136989,14.5377356 C24.2534575,14.7424483 24.7462621,14.8448046 25.2918138,14.8448046 C26.4591241,14.8448046 27.3612046,14.405046 27.9979057,13.5258276 L29.3168828,14.7765172 C28.8013655,15.3677931 28.1949977,15.7997816 27.4976299,16.0726322 C26.8002621,16.3456322 26.0650897,16.4820575 25.2918138,16.4820575 C24.4731126,16.4820575 23.7228483,16.3456322 23.0407218,16.0726322 C22.358446,15.7997816 21.7785264,15.4132184 21.3011126,14.9129425 C20.8235494,14.4126667 20.4520782,13.8215402 20.1868483,13.1392644 C19.9216184,12.4571379 19.7889287,11.7067241 19.7889287,10.888023 C19.7889287,10.0845632 19.9216184,9.34177011 20.1868483,8.65964368 C20.4520782,7.97736782 20.8272851,7.38609195 21.312469,6.88581609 C21.7975034,6.38554023 22.377423,5.99524138 23.0520782,5.71477011 C23.7265839,5.43429885 24.4731126,5.29413793 25.2918138,5.29413793 C26.0801816,5.29413793 26.8267103,5.43056322 27.5316989,5.70341379 C28.2366874,5.97626437 28.8544115,6.40078161 29.3851701,6.97681609 L27.9751931,8.22750575 Z" id="Fill-13"></path>
                <path d="M40.6411828,13.6850402 C40.6411828,14.1702241 40.6564241,14.6249253 40.6867575,15.0494425 C40.7169414,15.4739598 40.7320333,15.860523 40.7320333,16.2091322 L39.0495046,16.2091322 C39.0495046,15.9210402 39.0418839,15.6330977 39.0266425,15.3450057 C39.0115506,15.0570632 39.0039299,14.7613506 39.0039299,14.4581667 L38.9583552,14.4581667 C38.8371713,14.7159253 38.666677,14.9660632 38.446723,15.2085805 C38.2270678,15.4510977 37.9654241,15.6671667 37.6622402,15.8566379 C37.3590563,16.0461092 37.0180678,16.1977759 36.6391253,16.3114885 C36.2600333,16.4252011 35.850608,16.4819828 35.4109989,16.4819828 C34.713631,16.4819828 34.1111483,16.3758908 33.6032517,16.1637069 C33.0953552,15.9513736 32.6748724,15.6558103 32.3412057,15.2768678 C32.0076885,14.8977759 31.7612862,14.4391897 31.6021483,13.9011092 C31.4428609,13.3628793 31.3633667,12.7754885 31.3633667,12.1387874 L31.3633667,5.56691379 L33.1370448,5.56691379 L33.1370448,11.9567874 C33.1370448,12.8512471 33.3342862,13.5562356 33.7283207,14.0716034 C34.1225046,14.5871207 34.7363437,14.8447299 35.5701368,14.8447299 C36.1463207,14.8447299 36.6427115,14.7462586 37.059608,14.5491667 C37.4765046,14.3520747 37.8176425,14.0716034 38.0830218,13.7077529 C38.3482517,13.3439023 38.5453437,12.9119138 38.6741483,12.4116379 C38.8031023,11.9113621 38.8675046,11.3580402 38.8675046,10.7516724 L38.8675046,5.56691379 L40.6411828,5.56691379 L40.6411828,13.6850402 Z" id="Fill-15"></path>
                <path d="M44.0065989,8.09106552 C44.0065989,7.60588161 43.9915069,7.15118046 43.9611736,6.72666322 C43.9308402,6.30214598 43.9157483,5.91558276 43.9157483,5.56697356 L45.5984264,5.56697356 C45.5984264,5.85506552 45.6060471,6.14300805 45.6212885,6.4311 C45.636231,6.71904253 45.6440011,7.01475517 45.6440011,7.31793908 L45.6894264,7.31793908 C45.8106103,7.06018046 45.981254,6.81004253 46.2010586,6.56752529 C46.4208632,6.32500805 46.6823575,6.10893908 46.9856908,5.91946782 C47.2887253,5.72984713 47.6298632,5.57832989 48.0088057,5.46461724 C48.3877483,5.3509046 48.7971736,5.29412299 49.2367828,5.29412299 C49.3579667,5.29412299 49.4793,5.30174368 49.6006333,5.31683563 C49.7218172,5.33192759 49.8433,5.36226092 49.9644839,5.40768621 L49.8507713,7.20422644 C49.5475874,7.11322644 49.2291621,7.06780115 48.8957943,7.06780115 C47.8040931,7.06780115 47.0121391,7.4202954 46.5193345,8.12513448 C46.0266793,8.83012299 45.780277,9.79660575 45.780277,11.0244333 L45.780277,16.209192 L44.0065989,16.209192 L44.0065989,8.09106552 Z" id="Fill-17"></path>
                <polygon id="Fill-19" points="52.1701954 16.2092069 53.9438736 16.2092069 53.9438736 5.56698851 52.1701954 5.56698851"></polygon>
                <path d="M51.7609644,1.40559885 C51.7609644,1.05698966 51.8860333,0.753656322 52.1361713,0.496047126 C52.3863092,0.238288506 52.6932287,0.109483908 53.0570793,0.109483908 C53.4209299,0.109483908 53.7278494,0.238288506 53.9779874,0.496047126 C54.2282747,0.753656322 54.3533437,1.05698966 54.3533437,1.40559885 C54.3533437,1.78454138 54.2320103,2.09534598 53.9893437,2.33786322 C53.7468264,2.58052989 53.4361713,2.70171379 53.0570793,2.70171379 C52.6781368,2.70171379 52.3673322,2.58052989 52.1248149,2.33786322 C51.8822977,2.09534598 51.7609644,1.78454138 51.7609644,1.40559885" id="Fill-21"></path>
                <path d="M63.2899023,7.06778621 L60.1518218,7.06778621 L60.1518218,12.3888207 C60.1518218,12.7375793 60.1594425,13.0597402 60.1745345,13.3553034 C60.1897759,13.6508667 60.2504425,13.9086253 60.3565345,14.1284299 C60.4626264,14.3482345 60.6219138,14.5226138 60.8339483,14.6514184 C61.0462816,14.7803724 61.3496149,14.8447747 61.7436494,14.8447747 C62.001408,14.8447747 62.2666379,14.8144414 62.5396379,14.7537747 C62.8123391,14.693108 63.0700977,14.6022575 63.3126149,14.4809241 L63.3809023,16.0954644 C63.0777184,16.2318897 62.7403161,16.3303609 62.3689943,16.3910276 C61.9976724,16.4516943 61.6451782,16.4820276 61.3116609,16.4820276 C60.6748103,16.4820276 60.1670632,16.3986483 59.7879713,16.2318897 C59.4090287,16.065131 59.1134655,15.8302345 58.9011322,15.5269011 C58.6889483,15.2237172 58.5487874,14.8485103 58.4803506,14.4012805 C58.4122126,13.9540506 58.3781437,13.4576598 58.3781437,12.9118092 L58.3781437,7.06778621 L60.8000287,7.06778621 L60.8000287,5.56695862 L58.3781437,5.56695862 L58.3781437,2.5425908 L60.1518218,2.5425908 L60.1518218,5.56695862 L63.2899023,5.56695862 L63.2899023,7.06778621 Z" id="Fill-22"></path>
                <path d="M69.3842425,18.642269 C69.2022425,19.0971195 69.0165069,19.5102805 68.8270356,19.8816023 C68.6375644,20.2530736 68.4101391,20.5713494 68.1449092,20.8367287 C67.8796793,21.1019586 67.561254,21.3066713 67.1897828,21.4505678 C66.8184609,21.5946138 66.3674954,21.6666368 65.8368862,21.6666368 C65.5789782,21.6666368 65.3098632,21.6515448 65.029392,21.6212115 C64.7490701,21.5908782 64.4874264,21.5151195 64.2449092,21.3937862 L64.4724839,19.8475333 C64.6543345,19.923292 64.8438057,19.9726023 65.0408977,19.9953149 C65.2379897,20.0180276 65.4652655,20.0293839 65.7230241,20.0293839 C66.299208,20.0293839 66.7235759,19.870246 66.9965759,19.5518207 C67.2694264,19.2335448 67.5044724,18.8090276 67.7014149,18.2784184 L68.4289667,16.2773149 L64.0176333,5.56695862 L66.0870241,5.56695862 L69.3842425,13.9125103 L69.4296678,13.9125103 L72.5904609,5.56695862 L74.5234264,5.56695862 L69.3842425,18.642269 Z" id="Fill-23"></path>
            </g>
            <g id="分组" transform="translate(0.000000, 0.024057)">
                <mask id="mask-6" fill="white">
                    <use xlink:href="#path-5"></use>
                </mask>
                <use id="Clip-25" fill="url(#linearGradient-4)" xlink:href="#path-5"></use>
            </g>
        </g>
    </g>
</svg>